/* XPM */
static char *_656295bb707418aa369cd2b2b556dce[] = {
/* columns rows colors chars-per-pixel */
"128 128 52 1 ",
"  c #465162",
". c #475364",
"X c #495668",
"o c #4F5D73",
"O c #5C697A",
"+ c #87575F",
"@ c #A7595E",
"# c #BF5B5C",
"$ c #C75C5C",
"% c #CA635F",
"& c #C66261",
"* c #C96463",
"= c #C56866",
"- c #C56D6B",
"; c #C47371",
": c #CC7572",
"> c #C27F7B",
", c #CD7D79",
"< c #D8876C",
"1 c #EAB27C",
"2 c #ECB97F",
"3 c #999C9C",
"4 c #BF968F",
"5 c #BDA29A",
"6 c #BCADA4",
"7 c #BBB3A9",
"8 c #BAB9AE",
"9 c #BCBBB0",
"0 c #BFBEB2",
"q c #C18B85",
"w c #D08E88",
"e c #C0908A",
"r c #D2968F",
"t c #D49E97",
"y c #D5A69E",
"u c #D7AFA5",
"i c #DABFB4",
"p c #F5CF87",
"a c #C4C3B7",
"s c #C6C5B9",
"d c #C8C8BB",
"f c #CBCABD",
"g c #CDCDC0",
"h c #D4D4C6",
"j c #DDD0C2",
"k c #D7D6C8",
"l c #D9D9CA",
"z c #DED8CA",
"x c #DBDBCD",
"c c #DEDECF",
"v c #E0E0D1",
"b c None",
/* pixels */
"bbbbbbbbbbbbbbbbbbbbbbbbbbbbbbbbbbbbbbbbbbbbbbbbbbbbbbvvvvvvvvvvvvvvvvvvvvbbbbbbbbbbbbbbbbbbbbbbbbbbbbbbbbbbbbbbbbbbbbbbbbbbbbbb",
"bbbbbbbbbbbbbbbbbbbbbbbbbbbbbbbbbbbbbbbbbbbbbbbbbvvvvvvvvvvvvvvvvvvvvvvvvvvvvvvbbbbbbbbbbbbbbbbbbbbbbbbbbbbbbbbbbbbbbbbbbbbbbbbb",
"bbbbbbbbbbbbbbbbbbbbbbbbbbbbbbbbbbbbbbbbbbbbbbvvvvvvvvvvvvvvvvvvvvvvvvvvvvvvvvvvvvbbbbbbbbbbbbbbbbbbbbbbbbbbbbbbbbbbbbbbbbbbbbbb",
"bbbbbbbbbbbbbbbbbbbbbbbbbbbbbbbbbbbbbbbbbbbvvvvvvvvvvvvvvvvvvvvvvvvvvvvvvvvvvvvvvvvvvbbbbbbbbbbbbbbbbbbbbbbbbbbbbbbbbbbbbbbbbbbb",
"bbbbbbbbbbbbbbbbbbbbbbbbbbbbbbbbbbbbbbbbvvvvvvvvvvvvvvvvvvvvvvvvvvvvvvvvvvvvvvvvvvvvvvvvbbbbbbbbbbbbbbbbbbbbbbbbbbbbbbbbbbbbbbbb",
"bbbbbbbbbbbbbbbbbbbbbbbbbbbbbbbbbbbbbbvvvvvvvvvvvvvvvvvvvvvvvvvvvvvvvvvvvvvvvvvvvvvvvvvvvvbbbbbbbbbbbbbbbbbbbbbbbbbbbbbbbbbbbbbb",
"bbbbbbbbbbbbbbbbbbbbbbbbbbbbbbbbbbbvvvvvvvvvvvvvvvvvvvvvvvvvvvvvvvvvvvvvvvvvvvvvvvvvvvvvvvvvvbbbbbbbbbbbbbbbbbbbbbbbbbbbbbbbbbbb",
"bbbbbbbbbbbbbbbbbbbbbbbbbbbbbbbbbvvvvvvvvvvvvvvvvvvvvvvvvvvvvvvvvvvvvvvvvvvvvvvvvvvvvvvvvvvvvvvbbbbbbbbbbbbbbbbbbbbbbbbbbbbbbbbb",
"bbbbbbbbbbbbbbbbbbbbbbbbbbbbbbbbvvvvvvvvvvvvvvvvvvvvvvvvvvvvvvvvvvvvvvvvvvvvvvvvvvvvvvvvvvvvvvvvbbbbbbbbbbbbbbbbbbbbbbbbbbbbbbbb",
"bbbbbbbbbbbbbbbbbbbbbbbbbbbbbbvvvvvvvvvvvvvvvvvvvvvvvvvvvvvvvvvvvvvvvvvvvvvvvvvvvvvvvvvvvvvvvvvvvvbbbbbbbbbbbbbbbbbbbbbbbbbbbbbb",
"bbbbbbbbbbbbbbbbbbbbbbbbbbbbvvvvvvvvvvvvvvvvvvvvvvvvvvvvvvvvvvvvvvvvvvvvvvvvvvvvvvvvvvvvvvvvvvvvvvvvbbbbbbbbbbbbbbbbbbbbbbbbbbbb",
"bbbbbbbbbbbbbbbbbbbbbbbbbbbvvvvvvvvvvvvvvvvvvvvvvvvvvvvvvvvvvvvvvvvvvvvvvvvvvvvvvvvvvvvvvvvvvvvvvvvvvbbbbbbbbbbbbbbbbbbbbbbbbbbb",
"bbbbbbbbbbbbbbbbbbbbbbbbbbvvvvvvvvvvvvvvvvvvvvvvvvvvvvvvvvvvvvvvvvvvvvvvvvvvvvvvvvvvvvvvvvvvvvvvvvvvvvbbbbbbbbbbbbbbbbbbbbbbbbbb",
"bbbbbbbbbbbbbbbbbbbbbbbbvvvvvvvvvvvvvvvvvvvvvvvvvvvvvvvvvvvvvvvvvvvvvvvvvvvvvvvvvvvvvvvvvvvvvvvvvvvvvvvvbbbbbbbbbbbbbbbbbbbbbbbb",
"bbbbbbbbbbbbbbbbbbbbbbbvvvvvvvvvvvvvvvvvvvvvvvvvvvvvvvvvvvvvvvvvvvvvvvvvvvvvvvvvvvvvvvvvvvvvvvvvvvvvvvvvvbbbbbbbbbbbbbbbbbbbbbbb",
"bbbbbbbbbbbbbbbbbbbbbbvvvvvvvvvvvvvvvvvvvvvvvvvvvvvvvvvvvvvvvvvvvvvvvvvvvvvvvvvvvvvvvvvvvvvvvvvvvvvvvvvvvvbbbbbbbbbbbbbbbbbbbbbb",
"bbbbbbbbbbbbbbbbbbbbbvvvvvvvvvvvvvvvvvvvvvvvvvvvvvvvvvvvvvvvvvvvvvvvvvvvvvvvvvvvvvvvvvvvvvvvvvvvvvvvvvvvvvvbbbbbbbbbbbbbbbbbbbbb",
"bbbbbbbbbbbbbbbbbbbbvvvvvvvvvvvvvvvvvvvvvvvvvvvvvvvvvvvvvvvvvvvvvvvvvvvvvvvvvvvvvvvvvvvvvvvvvvvvvvvvvvvvvvvvbbbbbbbbbbbbbbbbbbbb",
"bbbbbbbbbbbbbbbbbbbvvvvvvvvvvvvvvvvvvvvvvvvvvvvvvvvvvvvvvvvvvvvvvvvvvvvvvvvvvvvvvvvvvvvvvvvvvvvvvvvvvvvvvvvvvbbbbbbbbbbbbbbbbbbb",
"bbbbbbbbbbbbbbbbbbvvvvvvvvvvvvvvvvvvvvvvvvvvvvvvvvvvvvvvvvvvvvvvvvvvvvvvvvvvvvvvvvvvvvvvvvvvvvvvvvvvvvvvvvvvvvbbbbbbbbbbbbbbbbbb",
"bbbbbbbbbbbbbbbbbvvvvvvvvvvvvvvvvvvvvvvvvvvvvvvvvvvvvvvvvvvvvvvvvvvvvvvvvvvvvvvvvvvvvvvvvvvvvvvvvvvvvvvvvvvvvvvbbbbbbbbbbbbbbbbb",
"bbbbbbbbbbbbbbbbvvvvvvvvvvvvvvvvvvvvvvvvvvvvvvvvvvvvvvvvvvvvvvvvvvvvvvvvvvvvvvvvvvvvvvvvvvvvvvvvvvvvvvvvvvvvvvvvbbbbbbbbbbbbbbbb",
"bbbbbbbbbbbbbbbvvvvvvvvvvvvvvvvvvvvvvvvvvvvvvvvvvvvvvvvvvvvvvvvvvvvvvvvvvvvvvvvvvvvvvvvvvvvvvvvvvvvvvvvvvvvvvvvvvbbbbbbbbbbbbbbb",
"bbbbbbbbbbbbbbvvvvvvvvvvvvvvvvvvvvvvvvvvvvvvvvvvvvvvvvvvvvvvvvvvvvvvvvvvvvvvvvvvvvvvvvvvvvvvvvvvvvvvvvvvvvvvvvvvvvbbbbbbbbbbbbbb",
"bbbbbbbbbbbbbvvvvvvvvvvvvvvvvvvvvvvvvvvvvvvvvvvvvvvvvvvvvvvvvvvvvvvvvvvvvvvvvvvvvvvvvvvvvvvvvvvvvvvvvvvvvvvvvvvvvvvbbbbbbbbbbbbb",
"bbbbbbbbbbbbbvvvvvvvvvvvvvvvvvvvvvvvvvvvvvvvvvvvvvvvvvvvvvvvvvvvvvvvvvvvvvvvvvvvvvvvvvvvvvvvvvvvvvvvvvvvvvvvvvvvvvvbbbbbbbbbbbbb",
"bbbbbbbbbbbbvvvvvvvvvvvvvvvvvvvvvvvvvvvzy,*$$$$$$$$$$$$$$$$$$$$$$$$$$$$$$$$$$$$$$$$$$*,yzvvvvvvvvvvvvvvvvvvvvvvvvvvvbbbbbbbbbbbb",
"bbbbbbbbbbbvvvvvvvvvvvvvvvvvvvvvvvvvvzt*$$$$$$$$$$$$$$$$$$$$$$$$$$$$$$$$$$$$$$$$$$$$$$$$*tzvvvvvvvvvvvvvvvvvvvvvvvvvvbbbbbbbbbbb",
"bbbbbbbbbbvvvvvvvvvvvvvvvvvvvvvvvvvvj:$$$$$$$$$$$$$$$$$$$$$$$$$$$$$$$$$$$$$$$$$$$$$$$$$$$$:jvvvvvvvvvvvvvvvvvvvvvvvvvvbbbbbbbbbb",
"bbbbbbbbbbvvvvvvvvvvvvvvvvvvvvvvvvvz*$$$$$$$$$$$$$$$$$$$$$$$$$$$$$$$$$$$$$$$$$$$$$$$$$$$$$$*zvvvvvvvvvvvvvvvvvvvvvvvvvbbbbbbbbbb",
"bbbbbbbbbvvvvvvvvvvvvvvvvvvvvvvvvvv:$$$$$$$$$$$$$$$$$$$$$$$$$$$$$$$$$$$$$$$$$$$$$$$$$$$$$$$$:vvvvvvvvvvvvvvvvvvvvvvvvvvbbbbbbbbb",
"bbbbbbbbbvvvvvvvvvvvvvvvvvvvvvvvvvr$$$$$$$$$$$$$$$$$$$$$$$$$$$$$$$$$$$$$$$$$$$$$$$$$$$$$$$$$$rvvvvvvvvvvvvvvvvvvvvvvvvvbbbbbbbbb",
"bbbbbbbbvvvvvvvvvvvvvvvvvvvvvvvvvj$$$$$$$$$$$$$$$$$$$$$$$$$$$$$$$$$$$$$$$$$$$$$$$$$$$$$$$$$$$$jvvvvvvvvvvvvvvvvvvvvvvvvvbbbbbbbb",
"bbbbbbbvvvvvvvvvvvvvvvvvvvvvvvvvvw$$$$$$$$$$$$$$$$$$$$$$$$$$$$$$$$$$$$$$$$$$$$$$$$$$$$$$$$$$$$wvvvvvvvvvvvvvvvvvvvvvvvvvvbbbbbbb",
"bbbbbbbvvvvvvvvvvvvvvvvvvvvvvvvvj$$$$$$$$$q788888888888888888888888888888888888888887q$$$$$$$$$jvvvvvvvvvvvvvvvvvvvvvvvvvbbbbbbb",
"bbbbbbvvvvvvvvvvvvvvvvvvvvvvvvvvy$$$$$$$$q88888888888888888888888888888888888888888888q$$$$$$$$yvvvvvvvvvvvvvvvvvvvvvvvvvvbbbbbb",
"bbbbbbvvvvvvvvvvvvvvvvvvvvvvvvvv,$$$$$$$=8888888888888888888888888888888888888888888888=$$$$$$$,vvvvvvvvvvvvvvvvvvvvvvvvvvbbbbbb",
"bbbbbbvvvvvvvvvvvvvvvvvvvvvvvvvv$$$$$$$$488888888888888888888888888888888888888888888884$$$$$$$$vvvvvvvvvvvvvvvvvvvvvvvvvvbbbbbb",
"bbbbbvvvvvvvvvvvvvvvvvvvvvvvvvvi$$$$$$$$78skvvvvvvvvvvvvvvvvvvvvvvvvvvvvvvvvvvvvvvvvks87$$$$$$$$ivvvvvvvvvvvvvvvvvvvvvvvvvvbbbbb",
"bbbbbvvvvvvvvvvvvvvvvvvvvvvvvvvy$$$$$$$-8svvvvvvvvvvvvvvvvvvvvvvvvvvvvvvvvvvvvvvvvvvvvs8-$$$$$$$yvvvvvvvvvvvvvvvvvvvvvvvvvvbbbbb",
"bbbbvvvvvvvvvvvvvvvvvvvvvvvvvvvw$$$$$$$>9cvvvvvvvvvvvvvvvvvvvvvvvvvvvvvvvvvvvvvvvvvvvvc9>$$$$$$$wvvvvvvvvvvvvvvvvvvvvvvvvvvvbbbb",
"bbbbvvvvvvvvvvvvvvvvvvvvvvvvvvv:$$$$$$$efvvvvvvvvvvvvvvvvvvvvvvvvvvvvvvvvvvvvvvvvvvvvvvfe$$$$$$$:vvvvvvvvvvvvvvvvvvvvvvvvvvvbbbb",
"bbbbvvvvvvvvvvvvvvvvvvvvvvvvvvv$$$$$$$$5lvvvvvvvvvvvvvvvvvvvvvvvvvvvvvvvvvvvvvvvvvvvvvvl5$$$$$$$$vvvvvvvvvvvvvvvvvvvvvvvvvvvbbbb",
"bbbvvvvvvvvvvvvvvvvvvvvvvvvvvvi$$$$$$$$9vvvvvvvvvvvvvvvvvvvvvvvvvvvvvvvvvvvvvvvvvvvvvvvv9$$$$$$$$ivvvvvvvvvvvvvvvvvvvvvvvvvvvbbb",
"bbbvvvvvvvvvvvvvvvvvvvvvvvvvvvy$$$$$$$-avvvvvvvvvvvvvvvvvvvvvvvvvvvvvvvvvvvvvvvvvvvvvvvva-$$$$$$$yvvvvvvvvvvvvvvvvvvvvvvvvvvvbbb",
"bbbvvvvvvvvvvvvvvvvvvvvvvvvvvvw$$$$$$$>gvvvvvvvvvvvvvvvvvvvvvvvvvvvvvvvvvvvvvvvvvvvvvvvvg>$$$$$$$wvvvvvvvvvvvvvvvvvvvvvvvvvvvbbb",
"bbvvvvvvvvvvvvvvvvvvvvvvvvvvvv:$$$$$$$ehvvvvvvvvvvvvvvvvvvvvvvvvvvvvvvvvvvvvvvvvvvvvvvvvhe$$$$$$$:vvvvvvvvvvvvvvvvvvvvvvvvvvvvbb",
"bbvvvvvvvvvvvvvvvvvvvvvvvvvvvv$$$$$$$$5xvvvvvvvvvvvvvvvvvvvvvvvvvvvvvvvvvvvvvvvvvvvvvvvvx5$$$$$$$$vvvvvvvvvvvvvvvvvvvvvvvvvvvvbb",
"bbvvvvvvvvvvvvvvvvvvvvvvvvvvvi$$$$$$$$9vvvvvvvvvvvvvvvvvvvvvvvvvvvvvvvvvvvvvvvvvvvvvvvvvv9$$$$$$$$ivvvvvvvvvvvvvvvvvvvvvvvvvvvbb",
"bvvvvvvvvvvvvvvvvvvvvvvvvvvvvy$$$$$$$-avvvvvvvvvvvvvvvvvvvvvvvvvvvvvvvvvvvvvvvvvvvvvvvvvva-$$$$$$$yvvvvvvvvvvvvvvvvvvvvvvvvvvvvb",
"bvvvvvvvvvvvvvvvvvvvvvvvvvvvvw$$$$$$$>gvvvvvvvvvvvvvvvvvvvvvvvvvvvvvvvvvvvvvvvvvvvvvvvvvvg>$$$$$$$wvvvvvvvvvvvvvvvvvvvvvvvvvvvvb",
"bvvvvvvvvvvvvvvvvvvvvvvvvvvvv:$$$$$$$ehvvvvvvvvvvvvvvvvvvvvvvvvvvvvvvvvvvvvvvvvvvvvvvvvvvhe$$$$$$$:vvvvvvvvvvvvvvvvvvvvvvvvvvvvb",
"bvvvvvvvvvvvvvvvvvvvvvvvvvvvv$$$$$$$$5xvvvvvvvvvvvvvvvvvvvvvvvvvvvvvvvvvvvvvvvvvvvvvvvvvvx5$$$$$$$$vvvvvvvvvvvvvvvvvvvvvvvvvvvvb",
"bvvvvvvvvvvvvvvvvvvvvvvvvvvvi$$$$$$$$9vvvvvvvvvvvvvvvvvvvvvvvvvvvvvvvvvvvvvvvvvvvvvvvvvvvv9$$$$$$$$ivvvvvvvvvvvvvvvvvvvvvvvvvvvb",
"vvvvvvvvvvvvvvvvvvvvvvvvvvvvy$$$$$$$-avvvvvvvvvvvvvvvvvvvvvvvvvvvvvvvvvvvvvvvvvvvvvvvvvvvva-$$$$$$$yvvvvvvvvvvvvvvvvvvvvvvvvvvvv",
"vvvvvvvvvvvvvvvvvvvvvvvvvvvvw$$$$$$$>gvvvvvvvvvvvvvvvvvvvvvvvvvvvvvvvvvvvvvvvvvvvvvvvvvvvvg>$$$$$$$wvvvvvvvvvvvvvvvvvvvvvvvvvvvv",
"vvvvvvvvvvvvvvvvvvvvvvvvvvvv:$$$$$$$ehvvvvvvvvvvvvvvvvvvvvvvvvvvvvvvvvvvvvvvvvvvvvvvvvvvvvhe$$$$$$$:vvvvvvvvvvvvvvvvvvvvvvvvvvvv",
"vvvvvvvvvvvvvvvvvvvvvvvvvvvv$$$$$$$$5xvvvvvvvvvvvvvvvvvvvvvvvvvvvvvvvvvvvvvvvvvvvvvvvvvvvvx5$$$$$$$$vvvvvvvvvvvvvvvvvvvvvvvvvvvv",
"vvvvvvvvvvvvvvvvvvvvvvvvvvvj$$$$$$$$$$$$$$$$$$$$$$$$$$$$$$$$$$$$$$$$$$$$$$$$$$$$$$$$$$$$$$$$$$$$$$$$jvvvvvvvvvvvvvvvvvvvvvvvvvvv",
"vvvvvvvvvvvvvvvvvvvvvvvvvj,$$$$$$$$$$$$$$$$$$$$$$$$$$$$$$$$$$$$$$$$$$$$$$$$$$$$$$$$$$$$$$$$$$$$$$$$$$,jvvvvvvvvvvvvvvvvvvvvvvvvv",
"vvvvvvvvvvvvvvvvvvvvvvvvu$$$$$$$$$$$$$$$$$$$$$$$$$$$$$$$$$$$$$$$$$$$$$$$$$$$$$$$$$$$$$$$$$$$$$$$$$$$$$$uvvvvvvvvvvvvvvvvvvvvvvvv",
"vvvvvvvvvvvvvvvvvvvvvvvw$$$$$$$$$$$$$$$$$$$$$$$$$$$$$$$$$$$$$$$$$$$$$$$$$$$$$$$$$$$$$$$$$$$$$$$$$$$$$$$$wvvvvvvvvvvvvvvvvvvvvvvv",
"vvvvvvvvvvvvvvvvvvvvvvu$$$$$$$$$$$$$$$$$$$$$$$$$$$$$$$$$$$$$$$$$$$$$$$$$$$$$$$$$$$$$$$$$$$$$$$$$$$$$$$$$$uvvvvvvvvvvvvvvvvvvvvvv",
"vvvvvvvvvvvvvvvvvvvvvj$$$$$$$$$$$$$$$$$$$$$$$$$$$$$$$$$$$$$$$$$$$$$$$$$$$$$$$$$$$$$$$$$$$$$$$$$$$$$$$$$$$$jvvvvvvvvvvvvvvvvvvvvv",
"vvvvvvvvvvvvvvvvvvvvv,$$$$$$$$$$$$$$$$$$$$$$$$$$$$$$$$$$$$$$$$$$$$$$$$$$$$$$$$$$$$$$$$$$$$$$$$$$$$$$$$$$$$,vvvvvvvvvvvvvvvvvvvvv",
"vvvvvvvvvvvvvvvvvvvvj$$$$$$$$$$$$$$$$$$$$$$$$$$$$$$$$$$$$$$$$$$$$$$$$$$$$$$$$$$$$$$$$$$$$$$$$$$$$$$$$$$$$$$jvvvvvvvvvvvvvvvvvvvv",
"vvvvvvvvvvvvvvvvvvvvt$$$$$$$$$$$$$$$$$$$$$$$$$$$$$$$$$$$$$$$$$$$$$$$$$$$$$$$$$$$$$$$$$$$$$$$$$$$$$$$$$$$$$$tvvvvvvvvvvvvvvvvvvvv",
"vvvvvvvvvvvvvvvvvvvv,$$$$$$$$$$$$$$$$$$$$$$$$$$$$$$$$$$$$$$$$$$$$$$$$$$$$$$$$$$$$$$$$$$$$$$$$$$$$$$$$$$$$$$,vvvvvvvvvvvvvvvvvvvv",
"vvvvvvvvvvvvvvvvvvvv*$$$$$$$$$$$$$$$$$$$$$$$$$$$$$$$$$$$$$$$$$$$$$$$$$$$$$$$$$$$$$$$$$$$$$$$$$$$$$$$$$$$$$$*vvvvvvvvvvvvvvvvvvvv",
"vvvvvvvvvvvvvvvvvvvv$$$$$$$$$$$$$$$$$$$$$$$$$$$$$$$$$$$$$$$$$$$$$$$$$$$$$$$$$$$$$$$$$$$$$$$$$$$$$$$$$$$$$$$$vvvvvvvvvvvvvvvvvvvv",
"vvvvvvvvvvvvvvvvvvvv$$$$$$$$$$$<1pp1<$$$$$$$$$$$$$$$$$$$$$$$$$$$$$$$$$$$$$$$$$$$$$$$$$$$$$$<1pp1<$$$$$$$$$$$vvvvvvvvvvvvvvvvvvvv",
"vvvvvvvvvvvvvvvvvvvv$$$$$$$$$%2pppppp2%$$$$$$$$$$$$$$$$$$$$$$$$$$$$$$$$$$$$$$$$$$$$$$$$$$%2pppppp2%$$$$$$$$$vvvvvvvvvvvvvvvvvvvv",
"vvvvvvvvvvvvvvvvvvvv$$$$$$$$$2pppppppp2$$$$$$$$$$$$$$$$$$$$$$$$$$$$$$$$$$$$$$$$$$$$$$$$$$2pppppppp2$$$$$$$$$vvvvvvvvvvvvvvvvvvvv",
"vvvvvvvvvvvvvvvvvvvv$$$$$$$$<pppppppppp<$$$$$$$$$$$$$$$$$$$$$$$$$$$$$$$$$$$$$$$$$$$$$$$$<pppppppppp<$$$$$$$$vvvvvvvvvvvvvvvvvvvv",
"bvvvvvvvvvvvvvvvvvvv$$$$$$$$1pppppppppp1$$$$$$$$$$$$$$$$$$$$$$$$$$$$$$$$$$$$$$$$$$$$$$$$1pppppppppp1$$$$$$$$vvvvvvvvvvvvvvvvvvvb",
"bvvvvvvvvvvvvvvvvvvv$$$$$$$$pppppppppppp$$$$$$$$$$$$$$$$$$$$$$$$$$$$$$$$$$$$$$$$$$$$$$$$pppppppppppp$$$$$$$$vvvvvvvvvvvvvvvvvvvb",
"bvvvvvvvvvvvvvvvvvvv$$$$$$$$pppppppppppp$$$$$$$$$$$$$$$$$$$$$$$$$$$$$$$$$$$$$$$$$$$$$$$$pppppppppppp$$$$$$$$vvvvvvvvvvvvvvvvvvvb",
"bvvvvvvvvvvvvvvvvvvv$$$$$$$$1pppppppppp1$$$$$$$$$$$$$$$$$$$$$$$$$$$$$$$$$$$$$$$$$$$$$$$$1pppppppppp1$$$$$$$$vvvvvvvvvvvvvvvvvvvb",
"bvvvvvvvvvvvvvvvvvvv$$$$$$$$<pppppppppp<$$$$$$$$$$$$$$$$$$$$$$$$$$$$$$$$$$$$$$$$$$$$$$$$<pppppppppp<$$$$$$$$vvvvvvvvvvvvvvvvvvvb",
"bbvvvvvvvvvvvvvvvvvv$$$$$$$$$2pppppppp2$$$$$$$$$$$$$$$$$$$$$$$$$$$$$$$$$$$$$$$$$$$$$$$$$$2pppppppp2$$$$$$$$$vvvvvvvvvvvvvvvvvvbb",
"bbvvvvvvvvvvvvvvvvvv$$$$$$$$$%2pppppp2%$$$$$$$$$$$$$$$$$$$$$$$$$$$$$$$$$$$$$$$$$$$$$$$$$$%2pppppp2%$$$$$$$$$vvvvvvvvvvvvvvvvvvbb",
"bbvvvvvvvvvvvvvvvvvv&$$$$$$$$$$<1pp1<$$$$$$$$$$$$$$$$$$$$$$$$$$$$$$$$$$$$$$$$$$$$$$$$$$$$$$<1pp1<$$$$$$$$$$&vvvvvvvvvvvvvvvvvvbb",
"bbbvvvvvvvvvvvvvvvvv;$$$$$$$$$$$$$$$$$$$$$$$$$$$$$$$$$$$$$$$$$$$$$$$$$$$$$$$$$$$$$$$$$$$$$$$$$$$$$$$$$$$$$$;vvvvvvvvvvvvvvvvvbbb",
"bbbvvvvvvvvvvvvvvvvvq$$$$$$$$$$$$$$$$$$$$$$$$$$$$$$$$$$$$$$$$$$$$$$$$$$$$$$$$$$$$$$$$$$$$$$$$$$$$$$$$$$$$$$qvvvvvvvvvvvvvvvvvbbb",
"bbbvvvvvvvvvvvvvvvvv6$$$$$$$$$$$$$$$$$$$$$$$$$$$$$$$$$$$$$$$$$$$$$$$$$$$$$$$$$$$$$$$$$$$$$$$$$$$$$$$$$$$$$$6vvvvvvvvvvvvvvvvvbbb",
"bbbbvvvvvvvvvvvvvvvv8;$$$$$$$$$$$$$$$$$$$$$$$$$$$$$$$$$$$$$$$$$$$$$$$$$$$$$$$$$$$$$$$$$$$$$$$$$$$$$$$$$$$$;8vvvvvvvvvvvvvvvvbbbb",
"bbbbvvvvvvvvvvvvvvvv06$$$$$$$$$$$$$$$$$$$$$$$$$$$$$$$$$$$$$$$$$$$$$$$$$$$$$$$$$$$$$$$$$$$$$$$$$$$$$$$$$$$$60vvvvvvvvvvvvvvvvbbbb",
"bbbbvvvvvvvvvvvvvvvvd84$$$$$$$$$$$$$$$$$$$$$$$$$$$$$$$$$$$$$$$$$$$$$$$$$$$$$$$$$$$$$$$$$$$$$$$$$$$$$$$$$$48dvvvvvvvvvvvvvvvvbbbb",
"bbbbbvvvvvvvvvvvvvvvh88>$$$$$$$$$$$$$$$$$$$$$$$$$$$$$$$$$$$$$$$$$$$$$$$$$$$$$$$$$$$$$$$$$$$$$$$$$$$$$$$$>88hvvvvvvvvvvvvvvvbbbbb",
"bbbbbvvvvvvvvvvvvvvvv0884$$$$$$$$$$$$$$$$$$$$$$$$$$$$$$$$$$$$$$$$$$$$$$$$$$$$$$$$$$$$$$$$$$$$$$$$$$$$$$4880vvvvvvvvvvvvvvvvbbbbb",
"bbbbbbvvvvvvvvvvvvvvvk8886;$$$$$$$$$$$$$$$$$$$$$$$$$$$$$$$$$$$$$$$$$$$$$$$$$$$$$$$$$$$$$$$$$$$$$$$$$$;6888kvvvvvvvvvvvvvvvbbbbbb",
"bbbbbbvvvvvvvvvvvvvvvvf88886+@#$$$$$$$$$$$$$$$$$$$$$$$$$$$$$$$$$$$$$$$$$$$$$$$$$$$$$$$$$$$$$$$$$$#@+68888fvvvvvvvvvvvvvvvvbbbbbb",
"bbbbbbvvvvvvvvvvvvvvvvvd8888            888888888888888888888888888888888888888888888888            8888dvvvvvvvvvvvvvvvvvbbbbbb",
"bbbbbbbvvvvvvvvvvvvvvvvvf888            888888888888888888888888888888888888888888888888            888fvvvvvvvvvvvvvvvvvbbbbbbb",
"bbbbbbbvvvvvvvvvvvvvvvvvvk08            888888888888888888888888888888888888888888888888            80kvvvvvvvvvvvvvvvvvvbbbbbbb",
"bbbbbbbbvvvvvvvvvvvvvvvvvvvhX.          888888888888888888888888888888888888888888888888          .Xhvvvvvvvvvvvvvvvvvvvbbbbbbbb",
"bbbbbbbbbvvvvvvvvvvvvvvvvvvvoooooooooooovvvvvvvvvvvvvvvvvvvvvvvvvvvvvvvvvvvvvvvvvvvvvvvvoooooooooooovvvvvvvvvvvvvvvvvvvbbbbbbbbb",
"bbbbbbbbbvvvvvvvvvvvvvvvvvvvOooooooooooOvvvvvvvvvvvvvvvvvvvvvvvvvvvvvvvvvvvvvvvvvvvvvvvvOooooooooooOvvvvvvvvvvvvvvvvvvvbbbbbbbbb",
"bbbbbbbbbbvvvvvvvvvvvvvvvvvv3oooooooooo3vvvvvvvvvvvvvvvvvvvvvvvvvvvvvvvvvvvvvvvvvvvvvvvv3oooooooooo3vvvvvvvvvvvvvvvvvvbbbbbbbbbb",
"bbbbbbbbbbvvvvvvvvvvvvvvvvvv83OooooooO38vvvvvvvvvvvvvvvvvvvvvvvvvvvvvvvvvvvvvvvvvvvvvvvv83OooooooO38vvvvvvvvvvvvvvvvvvbbbbbbbbbb",
"bbbbbbbbbbbvvvvvvvvvvvvvvvvv888888888888vvvvvvvvvvvvvvvvvvvvvvvvvvvvvvvvvvvvvvvvvvvvvvvv888888888888vvvvvvvvvvvvvvvvvbbbbbbbbbbb",
"bbbbbbbbbbbbvvvvvvvvvvvvvvvv088888888880vvvvvvvvvvvvvvvvvvvvvvvvvvvvvvvvvvvvvvvvvvvvvvvv088888888880vvvvvvvvvvvvvvvvbbbbbbbbbbbb",
"bbbbbbbbbbbbbvvvvvvvvvvvvvvvh8888888888hvvvvvvvvvvvvvvvvvvvvvvvvvvvvvvvvvvvvvvvvvvvvvvvvh8888888888hvvvvvvvvvvvvvvvbbbbbbbbbbbbb",
"bbbbbbbbbbbbbvvvvvvvvvvvvvvvvh08888880hvvvvvvvvvvvvvvvvvvvvvvvvvvvvvvvvvvvvvvvvvvvvvvvvvvh08888880hvvvvvvvvvvvvvvvvbbbbbbbbbbbbb",
"bbbbbbbbbbbbbbvvvvvvvvvvvvvvvvvvvvvvvvvvvvvvvvvvvvvvvvvvvvvvvvvvvvvvvvvvvvvvvvvvvvvvvvvvvvvvvvvvvvvvvvvvvvvvvvvvvvbbbbbbbbbbbbbb",
"bbbbbbbbbbbbbbbvvvvvvvvvvvvvvvvvvvvvvvvvvvvvvvvvvvvvvvvvvvvvvvvvvvvvvvvvvvvvvvvvvvvvvvvvvvvvvvvvvvvvvvvvvvvvvvvvvbbbbbbbbbbbbbbb",
"bbbbbbbbbbbbbbbbvvvvvvvvvvvvvvvvvvvvvvvvvvvvvvvvvvvvvvvvvvvvvvvvvvvvvvvvvvvvvvvvvvvvvvvvvvvvvvvvvvvvvvvvvvvvvvvvbbbbbbbbbbbbbbbb",
"bbbbbbbbbbbbbbbbbvvvvvvvvvvvvvvvvvvvvvvvvvvvvvvvvvvvvvvvvvvvvvvvvvvvvvvvvvvvvvvvvvvvvvvvvvvvvvvvvvvvvvvvvvvvvvvbbbbbbbbbbbbbbbbb",
"bbbbbbbbbbbbbbbbbbvvvvvvvvvvvvvvvvvvvvvvvvvvvvvvvvvvvvvvvvvvvvvvvvvvvvvvvvvvvvvvvvvvvvvvvvvvvvvvvvvvvvvvvvvvvvbbbbbbbbbbbbbbbbbb",
"bbbbbbbbbbbbbbbbbbbvvvvvvvvvvvvvvvvvvvvvvvvvvvvvvvvvvvvvvvvvvvvvvvvvvvvvvvvvvvvvvvvvvvvvvvvvvvvvvvvvvvvvvvvvvbbbbbbbbbbbbbbbbbbb",
"bbbbbbbbbbbbbbbbbbbbvvvvvvvvvvvvvvvvvvvvvvvvvvvvvvvvvvvvvvvvvvvvvvvvvvvvvvvvvvvvvvvvvvvvvvvvvvvvvvvvvvvvvvvvbbbbbbbbbbbbbbbbbbbb",
"bbbbbbbbbbbbbbbbbbbbbvvvvvvvvvvvvvvvvvvvvvvvvvvvvvvvvvvvvvvvvvvvvvvvvvvvvvvvvvvvvvvvvvvvvvvvvvvvvvvvvvvvvvvbbbbbbbbbbbbbbbbbbbbb",
"bbbbbbbbbbbbbbbbbbbbbbvvvvvvvvvvvvvvvvvvvvvvvvvvvvvvvvvvvvvvvvvvvvvvvvvvvvvvvvvvvvvvvvvvvvvvvvvvvvvvvvvvvvbbbbbbbbbbbbbbbbbbbbbb",
"bbbbbbbbbbbbbbbbbbbbbbbvvvvvvvvvvvvvvvvvvvvvvvvvvvvvvvvvvvvvvvvvvvvvvvvvvvvvvvvvvvvvvvvvvvvvvvvvvvvvvvvvvbbbbbbbbbbbbbbbbbbbbbbb",
"bbbbbbbbbbbbbbbbbbbbbbbbvvvvvvvvvvvvvvvvvvvvvvvvvvvvvvvvvvvvvvvvvvvvvvvvvvvvvvvvvvvvvvvvvvvvvvvvvvvvvvvvbbbbbbbbbbbbbbbbbbbbbbbb",
"bbbbbbbbbbbbbbbbbbbbbbbbbbvvvvvvvvvvvvvvvvvvvvvvvvvvvvvvvvvvvvvvvvvvvvvvvvvvvvvvvvvvvvvvvvvvvvvvvvvvvvbbbbbbbbbbbbbbbbbbbbbbbbbb",
"bbbbbbbbbbbbbbbbbbbbbbbbbbbvvvvvvvvvvvvvvvvvvvvvvvvvvvvvvvvvvvvvvvvvvvvvvvvvvvvvvvvvvvvvvvvvvvvvvvvvvbbbbbbbbbbbbbbbbbbbbbbbbbbb",
"bbbbbbbbbbbbbbbbbbbbbbbbbbbbvvvvvvvvvvvvvvvvvvvvvvvvvvvvvvvvvvvvvvvvvvvvvvvvvvvvvvvvvvvvvvvvvvvvvvvvbbbbbbbbbbbbbbbbbbbbbbbbbbbb",
"bbbbbbbbbbbbbbbbbbbbbbbbbbbbbbvvvvvvvvvvvvvvvvvvvvvvvvvvvvvvvvvvvvvvvvvvvvvvvvvvvvvvvvvvvvvvvvvvvvbbbbbbbbbbbbbbbbbbbbbbbbbbbbbb",
"bbbbbbbbbbbbbbbbbbbbbbbbbbbbbbbbvvvvvvvvvvvvvvvvvvvvvvvvvvvvvvvvvvvvvvvvvvvvvvvvvvvvvvvvvvvvvvvvbbbbbbbbbbbbbbbbbbbbbbbbbbbbbbbb",
"bbbbbbbbbbbbbbbbbbbbbbbbbbbbbbbbbvvvvvvvvvvvvvvvvvvvvvvvvvvvvvvvvvvvvvvvvvvvvvvvvvvvvvvvvvvvvvvbbbbbbbbbbbbbbbbbbbbbbbbbbbbbbbbb",
"bbbbbbbbbbbbbbbbbbbbbbbbbbbbbbbbbbbvvvvvvvvvvvvvvvvvvvvvvvvvvvvvvvvvvvvvvvvvvvvvvvvvvvvvvvvvvbbbbbbbbbbbbbbbbbbbbbbbbbbbbbbbbbbb",
"bbbbbbbbbbbbbbbbbbbbbbbbbbbbbbbbbbbbbbvvvvvvvvvvvvvvvvvvvvvvvvvvvvvvvvvvvvvvvvvvvvvvvvvvvvbbbbbbbbbbbbbbbbbbbbbbbbbbbbbbbbbbbbbb",
"bbbbbbbbbbbbbbbbbbbbbbbbbbbbbbbbbbbbbbbbvvvvvvvvvvvvvvvvvvvvvvvvvvvvvvvvvvvvvvvvvvvvvvvvbbbbbbbbbbbbbbbbbbbbbbbbbbbbbbbbbbbbbbbb",
"bbbbbbbbbbbbbbbbbbbbbbbbbbbbbbbbbbbbbbbbbbbvvvvvvvvvvvvvvvvvvvvvvvvvvvvvvvvvvvvvvvvvvbbbbbbbbbbbbbbbbbbbbbbbbbbbbbbbbbbbbbbbbbbb",
"bbbbbbbbbbbbbbbbbbbbbbbbbbbbbbbbbbbbbbbbbbbbbbvvvvvvvvvvvvvvvvvvvvvvvvvvvvvvvvvvvvbbbbbbbbbbbbbbbbbbbbbbbbbbbbbbbbbbbbbbbbbbbbbb",
"bbbbbbbbbbbbbbbbbbbbbbbbbbbbbbbbbbbbbbbbbbbbbbbbbvvvvvvvvvvvvvvvvvvvvvvvvvvvvvvbbbbbbbbbbbbbbbbbbbbbbbbbbbbbbbbbbbbbbbbbbbbbbbbb",
"bbbbbbbbbbbbbbbbbbbbbbbbbbbbbbbbbbbbbbbbbbbbbbbbbbbbbbvvvvvvvvvvvvvvvvvvvvbbbbbbbbbbbbbbbbbbbbbbbbbbbbbbbbbbbbbbbbbbbbbbbbbbbbbb"
};
